<svg xmlns="http://www.w3.org/2000/svg" xmlns:xlink="http://www.w3.org/1999/xlink" viewBox="0,0,256,256" width="48px" height="48px" fill-rule="nonzero"><g fill="#ffffff" fill-rule="nonzero" stroke="#ffffff" stroke-width="3" stroke-linecap="butt" stroke-linejoin="round" stroke-miterlimit="10" stroke-dasharray="" stroke-dashoffset="0" font-family="none" font-weight="none" font-size="none" text-anchor="none" style="mix-blend-mode: normal"><path transform="scale(10.66667,10.66667)" d="M21,7v10c0,2.209 -1.791,4 -4,4h-1.586v-6.965h2.365l0.351,-2.725h-2.7v-1.735c0,-0.788 0.22,-1.322 1.35,-1.322h1.428v-2.43c-0.695,-0.071 -1.393,-0.107 -2.092,-0.105c-2.074,0 -3.495,1.267 -3.495,3.591v2.005h-2.343v2.725h2.343v6.961h-5.621c-2.209,0 -4,-1.791 -4,-4v-10c0,-2.209 1.791,-4 4,-4h10c2.209,0 4,1.791 4,4z" id="strokeMainSVG"></path></g><g fill="#000000" fill-rule="nonzero" stroke="none" stroke-width="1" stroke-linecap="butt" stroke-linejoin="miter" stroke-miterlimit="10" stroke-dasharray="" stroke-dashoffset="0" font-family="none" font-weight="none" font-size="none" text-anchor="none" style="mix-blend-mode: normal"><g transform="scale(10.66667,10.66667)"><path d="M17,3h-10c-2.209,0 -4,1.791 -4,4v10c0,2.209 1.791,4 4,4h5.621v-6.961h-2.343v-2.725h2.343v-2.005c0,-2.324 1.421,-3.591 3.495,-3.591c0.699,-0.002 1.397,0.034 2.092,0.105v2.43h-1.428c-1.13,0 -1.35,0.534 -1.35,1.322v1.735h2.7l-0.351,2.725h-2.365v6.965h1.586c2.209,0 4,-1.791 4,-4v-10c0,-2.209 -1.791,-4 -4,-4z"></path></g></g></svg>