<svg xmlns="http://www.w3.org/2000/svg" xmlns:xlink="http://www.w3.org/1999/xlink" viewBox="0,0,256,256" width="50px" height="50px" fill-rule="nonzero"><g fill="#ffffff" fill-rule="nonzero" stroke="none" stroke-width="1" stroke-linecap="butt" stroke-linejoin="miter" stroke-miterlimit="10" stroke-dasharray="" stroke-dashoffset="0" font-family="none" font-weight="none" font-size="none" text-anchor="none" style="mix-blend-mode: normal"><g transform="scale(5.12,5.12)"><path d="M25,2c-12.69141,0 -23,10.30859 -23,23c0,12.69141 10.30859,23 23,23c12.69141,0 23,-10.30859 23,-23c0,-12.69141 -10.30859,-23 -23,-23zM25,4c11.60938,0 21,9.39063 21,21c0,11.60938 -9.39062,21 -21,21c-11.60937,0 -21,-9.39062 -21,-21c0,-11.60937 9.39063,-21 21,-21zM30.69141,14.05859c-3.59766,0 -6.53906,2.94141 -6.53906,6.53906c0,0.02344 0.00781,0.05078 0.00781,0.07422c-3.8125,-0.50781 -7.1875,-2.39062 -9.50391,-5.23437c-0.21094,-0.25391 -0.52734,-0.38672 -0.85547,-0.36328c-0.32812,0.02734 -0.62109,0.21094 -0.78516,0.49219c-0.5625,0.96875 -0.88672,2.09766 -0.88672,3.29297c0,1.05859 0.29688,2.04688 0.75,2.9375c-0.46094,0.09766 -0.79297,0.50391 -0.79297,0.97656v0.07031c0,1.93359 0.90625,3.60938 2.24609,4.80859c-0.27344,0.26563 -0.375,0.66016 -0.25781,1.02344c0.55469,1.73828 1.85938,3.09766 3.48828,3.86719c-1.30469,0.60938 -2.70312,1.04688 -4.24219,1.04688c-0.41016,0 -0.80859,-0.02344 -1.19922,-0.07422c-0.46484,-0.05469 -0.90625,0.21875 -1.0625,0.65625c-0.16016,0.44141 0.00781,0.92969 0.40234,1.18359c2.60547,1.66797 5.70703,2.64453 9.02734,2.64453c5.37109,0 9.61719,-2.25781 12.45313,-5.47266c2.83984,-3.21875 4.3125,-7.375 4.3125,-11.28906c0,-0.11719 -0.00391,-0.22656 -0.00781,-0.34375c0.97266,-0.78125 1.89063,-1.64453 2.58203,-2.68359c0.23828,-0.35156 0.22656,-0.8125 -0.02734,-1.15234c-0.25391,-0.33984 -0.69141,-0.48437 -1.09766,-0.35937c0.16406,-0.31641 0.39063,-0.58594 0.5,-0.92969c0.12891,-0.39453 -0.00391,-0.82812 -0.32812,-1.08594c-0.32422,-0.25781 -0.77344,-0.29297 -1.12891,-0.07812c-0.875,0.51563 -1.85937,0.85938 -2.875,1.09766c-1.14453,-0.97656 -2.56641,-1.64453 -4.17969,-1.64453zM30.69141,16.05859c1.3125,0 2.48828,0.54688 3.3125,1.42969c0.23828,0.25391 0.58594,0.36719 0.92188,0.30078c0.15234,-0.03125 0.27734,-0.125 0.42578,-0.16406c-0.01953,0.01172 -0.03125,0.03516 -0.05078,0.04688c-0.38672,0.23047 -0.57031,0.69531 -0.44531,1.12891c0.125,0.43359 0.52344,0.73438 0.97656,0.72656c-0.07031,0.05078 -0.10937,0.13672 -0.17969,0.1875c-0.27344,0.19531 -0.42969,0.51563 -0.41406,0.85156c0.00781,0.22266 0.01563,0.44922 0.01563,0.67188c0,3.40625 -1.3125,7.13281 -3.8125,9.96484c-2.49609,2.83203 -6.13281,4.79688 -10.95312,4.79688c-1.65234,0 -3.20703,-0.33203 -4.6875,-0.83203c1.84375,-0.39062 3.58594,-1.04297 5.01563,-2.16406c0.33203,-0.26172 0.46484,-0.70312 0.32813,-1.10156c-0.13281,-0.40234 -0.50391,-0.67578 -0.92578,-0.68359c-1.41406,-0.02734 -2.50781,-0.82812 -3.32031,-1.85937c0.30078,-0.03906 0.60937,-0.03906 0.89453,-0.12109c0.44531,-0.12109 0.75,-0.53516 0.73438,-0.99609c-0.01562,-0.46484 -0.34766,-0.85547 -0.80469,-0.94531c-1.64844,-0.33594 -2.9375,-1.57422 -3.41016,-3.17578c0.42578,0.10156 0.79688,0.33203 1.25,0.34766c0.44531,0.01172 0.84766,-0.26953 0.98438,-0.69531c0.13672,-0.42578 -0.02734,-0.88672 -0.39453,-1.13672c-1.22266,-0.81641 -2.02344,-2.19531 -2.02344,-3.77734c0,-0.32812 0.17578,-0.58984 0.24219,-0.89453c2.83984,2.8125 6.62109,4.67969 10.87891,4.89453c0.3125,0.01563 0.61719,-0.11719 0.81641,-0.35937c0.20313,-0.24219 0.27734,-0.56641 0.20313,-0.87109c-0.07422,-0.32812 -0.11719,-0.67187 -0.11719,-1.03125c0,-2.51953 2.01953,-4.53906 4.53906,-4.53906zM30.69141,16.05859"></path></g></g></svg>